<mxfile host="app.diagrams.net" agent="Mozilla/5.0 (Windows NT 10.0; Win64; x64) AppleWebKit/537.36 (KHTML, like Gecko) Chrome/135.0.0.0 Safari/537.36" version="26.2.14">
  <diagram name="Страница — 1" id="cj5hCw1JWFK88OPKFZOY">
    <mxGraphModel dx="2253" dy="777" grid="1" gridSize="10" guides="1" tooltips="1" connect="1" arrows="1" fold="1" page="1" pageScale="1" pageWidth="827" pageHeight="1169" math="0" shadow="0">
      <root>
        <mxCell id="0" />
        <mxCell id="1" parent="0" />
        <mxCell id="2vLhvoE99awzoXhruENi-1" value="Кладовщик&lt;div&gt;&lt;br&gt;&lt;/div&gt;" style="shape=umlActor;verticalLabelPosition=bottom;verticalAlign=top;html=1;" parent="1" vertex="1">
          <mxGeometry x="-325" y="470" width="30" height="60" as="geometry" />
        </mxCell>
        <mxCell id="2vLhvoE99awzoXhruENi-3" value="Менеджер&lt;div&gt;&lt;br&gt;&lt;/div&gt;" style="shape=umlActor;verticalLabelPosition=bottom;verticalAlign=top;html=1;" parent="1" vertex="1">
          <mxGeometry x="-420" y="319" width="30" height="60" as="geometry" />
        </mxCell>
        <mxCell id="2vLhvoE99awzoXhruENi-4" value="Проверка остатков" style="ellipse;whiteSpace=wrap;html=1;" parent="1" vertex="1">
          <mxGeometry x="-280" y="260" width="140" height="70" as="geometry" />
        </mxCell>
        <mxCell id="2vLhvoE99awzoXhruENi-5" value="Редактирование заказа" style="ellipse;whiteSpace=wrap;html=1;" parent="1" vertex="1">
          <mxGeometry x="-380" y="190" width="140" height="70" as="geometry" />
        </mxCell>
        <mxCell id="2vLhvoE99awzoXhruENi-6" value="Создание заказа" style="ellipse;whiteSpace=wrap;html=1;" parent="1" vertex="1">
          <mxGeometry x="-530" y="190" width="140" height="70" as="geometry" />
        </mxCell>
        <mxCell id="2vLhvoE99awzoXhruENi-7" value="Просмотр всех заказов" style="ellipse;whiteSpace=wrap;html=1;" parent="1" vertex="1">
          <mxGeometry x="-650" y="350" width="140" height="70" as="geometry" />
        </mxCell>
        <mxCell id="2vLhvoE99awzoXhruENi-10" value="Добавление товара" style="ellipse;whiteSpace=wrap;html=1;" parent="1" vertex="1">
          <mxGeometry x="-680" y="110" width="140" height="70" as="geometry" />
        </mxCell>
        <mxCell id="2vLhvoE99awzoXhruENi-11" value="Удаление товара" style="ellipse;whiteSpace=wrap;html=1;" parent="1" vertex="1">
          <mxGeometry x="-250" y="60" width="140" height="70" as="geometry" />
        </mxCell>
        <mxCell id="2vLhvoE99awzoXhruENi-12" value="extend" style="endArrow=open;endSize=12;dashed=1;html=1;rounded=0;entryX=0.643;entryY=0.029;entryDx=0;entryDy=0;entryPerimeter=0;" parent="1" source="2vLhvoE99awzoXhruENi-11" target="2vLhvoE99awzoXhruENi-5" edge="1">
          <mxGeometry width="160" relative="1" as="geometry">
            <mxPoint x="-220" y="320" as="sourcePoint" />
            <mxPoint x="-60" y="320" as="targetPoint" />
          </mxGeometry>
        </mxCell>
        <mxCell id="2vLhvoE99awzoXhruENi-13" value="include" style="endArrow=open;endSize=12;dashed=1;html=1;rounded=0;entryX=1;entryY=1;entryDx=0;entryDy=0;exitX=0.207;exitY=0.057;exitDx=0;exitDy=0;exitPerimeter=0;" parent="1" source="2vLhvoE99awzoXhruENi-6" target="2vLhvoE99awzoXhruENi-10" edge="1">
          <mxGeometry width="160" relative="1" as="geometry">
            <mxPoint x="-220" y="320" as="sourcePoint" />
            <mxPoint x="-60" y="320" as="targetPoint" />
          </mxGeometry>
        </mxCell>
        <mxCell id="2vLhvoE99awzoXhruENi-14" value="Отмена заказов" style="ellipse;whiteSpace=wrap;html=1;" parent="1" vertex="1">
          <mxGeometry x="-650" y="260" width="140" height="70" as="geometry" />
        </mxCell>
        <mxCell id="2vLhvoE99awzoXhruENi-15" value="Добавление количества" style="ellipse;whiteSpace=wrap;html=1;" parent="1" vertex="1">
          <mxGeometry x="-810" y="20" width="140" height="70" as="geometry" />
        </mxCell>
        <mxCell id="2vLhvoE99awzoXhruENi-16" value="include" style="endArrow=open;endSize=12;dashed=1;html=1;rounded=0;entryX=0.643;entryY=0.943;entryDx=0;entryDy=0;entryPerimeter=0;" parent="1" source="2vLhvoE99awzoXhruENi-10" target="2vLhvoE99awzoXhruENi-15" edge="1">
          <mxGeometry width="160" relative="1" as="geometry">
            <mxPoint x="-220" y="120" as="sourcePoint" />
            <mxPoint x="-60" y="120" as="targetPoint" />
          </mxGeometry>
        </mxCell>
        <mxCell id="2vLhvoE99awzoXhruENi-21" value="" style="line;strokeWidth=1;fillColor=none;align=left;verticalAlign=middle;spacingTop=-1;spacingLeft=3;spacingRight=3;rotatable=0;labelPosition=right;points=[];portConstraint=eastwest;strokeColor=inherit;" parent="1" vertex="1">
          <mxGeometry x="-520" y="371" width="70" height="8" as="geometry" />
        </mxCell>
        <mxCell id="2vLhvoE99awzoXhruENi-27" value="" style="endArrow=none;html=1;rounded=0;entryX=0.314;entryY=0.943;entryDx=0;entryDy=0;entryPerimeter=0;" parent="1" target="2vLhvoE99awzoXhruENi-5" edge="1">
          <mxGeometry width="50" height="50" relative="1" as="geometry">
            <mxPoint x="-380" y="300" as="sourcePoint" />
            <mxPoint x="-350" y="268" as="targetPoint" />
            <Array as="points">
              <mxPoint x="-380" y="298" />
            </Array>
          </mxGeometry>
        </mxCell>
        <mxCell id="2vLhvoE99awzoXhruENi-29" value="" style="endArrow=none;html=1;rounded=0;entryX=-0.014;entryY=0.6;entryDx=0;entryDy=0;entryPerimeter=0;" parent="1" target="2vLhvoE99awzoXhruENi-4" edge="1">
          <mxGeometry width="50" height="50" relative="1" as="geometry">
            <mxPoint x="-370" y="350" as="sourcePoint" />
            <mxPoint x="-320" y="300" as="targetPoint" />
          </mxGeometry>
        </mxCell>
        <mxCell id="2vLhvoE99awzoXhruENi-30" value="" style="endArrow=none;html=1;rounded=0;" parent="1" edge="1">
          <mxGeometry width="50" height="50" relative="1" as="geometry">
            <mxPoint x="-463" y="260" as="sourcePoint" />
            <mxPoint x="-420" y="300" as="targetPoint" />
          </mxGeometry>
        </mxCell>
        <mxCell id="2vLhvoE99awzoXhruENi-31" value="" style="endArrow=none;html=1;rounded=0;" parent="1" edge="1">
          <mxGeometry width="50" height="50" relative="1" as="geometry">
            <mxPoint x="-440" y="320" as="sourcePoint" />
            <mxPoint x="-510" y="290" as="targetPoint" />
          </mxGeometry>
        </mxCell>
        <mxCell id="2vLhvoE99awzoXhruENi-33" value="Просмотр списка на сборку" style="ellipse;whiteSpace=wrap;html=1;" parent="1" vertex="1">
          <mxGeometry x="-180" y="460" width="140" height="70" as="geometry" />
        </mxCell>
        <mxCell id="2vLhvoE99awzoXhruENi-34" value="Изменение статуса заказа на &quot;Собран&quot;" style="ellipse;whiteSpace=wrap;html=1;" parent="1" vertex="1">
          <mxGeometry x="-210" y="540" width="140" height="70" as="geometry" />
        </mxCell>
        <mxCell id="2vLhvoE99awzoXhruENi-36" value="Управление карточками товаров" style="ellipse;whiteSpace=wrap;html=1;" parent="1" vertex="1">
          <mxGeometry x="-190" y="371" width="140" height="70" as="geometry" />
        </mxCell>
        <mxCell id="2vLhvoE99awzoXhruENi-37" value="Удаление" style="ellipse;whiteSpace=wrap;html=1;" parent="1" vertex="1">
          <mxGeometry x="20" y="410" width="140" height="70" as="geometry" />
        </mxCell>
        <mxCell id="2vLhvoE99awzoXhruENi-38" value="Редактирование" style="ellipse;whiteSpace=wrap;html=1;" parent="1" vertex="1">
          <mxGeometry x="10" y="301" width="140" height="70" as="geometry" />
        </mxCell>
        <mxCell id="2vLhvoE99awzoXhruENi-39" value="Создание" style="ellipse;whiteSpace=wrap;html=1;" parent="1" vertex="1">
          <mxGeometry x="-80" y="230" width="140" height="70" as="geometry" />
        </mxCell>
        <mxCell id="2vLhvoE99awzoXhruENi-41" value="extend" style="endArrow=open;endSize=12;dashed=1;html=1;rounded=0;exitX=0;exitY=1;exitDx=0;exitDy=0;" parent="1" source="2vLhvoE99awzoXhruENi-39" edge="1">
          <mxGeometry x="0.0031" width="160" relative="1" as="geometry">
            <mxPoint x="-150" y="335.5" as="sourcePoint" />
            <mxPoint x="-100" y="370" as="targetPoint" />
            <Array as="points" />
            <mxPoint as="offset" />
          </mxGeometry>
        </mxCell>
        <mxCell id="2vLhvoE99awzoXhruENi-44" value="extend" style="endArrow=open;endSize=12;dashed=1;html=1;rounded=0;entryX=0.979;entryY=0.3;entryDx=0;entryDy=0;entryPerimeter=0;exitX=0.007;exitY=0.629;exitDx=0;exitDy=0;exitPerimeter=0;" parent="1" source="2vLhvoE99awzoXhruENi-38" target="2vLhvoE99awzoXhruENi-36" edge="1">
          <mxGeometry width="160" relative="1" as="geometry">
            <mxPoint x="-530" y="320" as="sourcePoint" />
            <mxPoint x="-370" y="320" as="targetPoint" />
          </mxGeometry>
        </mxCell>
        <mxCell id="2vLhvoE99awzoXhruENi-45" value="extend" style="endArrow=open;endSize=12;dashed=1;html=1;rounded=0;entryX=1.007;entryY=0.643;entryDx=0;entryDy=0;entryPerimeter=0;" parent="1" source="2vLhvoE99awzoXhruENi-37" target="2vLhvoE99awzoXhruENi-36" edge="1">
          <mxGeometry width="160" relative="1" as="geometry">
            <mxPoint x="21" y="355" as="sourcePoint" />
            <mxPoint x="-43" y="402" as="targetPoint" />
          </mxGeometry>
        </mxCell>
        <mxCell id="2vLhvoE99awzoXhruENi-50" value="" style="endArrow=none;html=1;rounded=0;" parent="1" edge="1">
          <mxGeometry width="50" height="50" relative="1" as="geometry">
            <mxPoint x="-210" y="560" as="sourcePoint" />
            <mxPoint x="-270" y="530" as="targetPoint" />
          </mxGeometry>
        </mxCell>
        <mxCell id="2vLhvoE99awzoXhruENi-51" value="" style="endArrow=none;html=1;rounded=0;" parent="1" edge="1">
          <mxGeometry width="50" height="50" relative="1" as="geometry">
            <mxPoint x="-280" y="490" as="sourcePoint" />
            <mxPoint x="-180" y="500" as="targetPoint" />
          </mxGeometry>
        </mxCell>
        <mxCell id="2vLhvoE99awzoXhruENi-52" value="" style="endArrow=none;html=1;rounded=0;entryX=0;entryY=0.671;entryDx=0;entryDy=0;entryPerimeter=0;" parent="1" target="2vLhvoE99awzoXhruENi-36" edge="1">
          <mxGeometry width="50" height="50" relative="1" as="geometry">
            <mxPoint x="-280" y="470" as="sourcePoint" />
            <mxPoint x="-230" y="420" as="targetPoint" />
          </mxGeometry>
        </mxCell>
        <mxCell id="2vLhvoE99awzoXhruENi-53" value="Курьер" style="shape=umlActor;verticalLabelPosition=bottom;verticalAlign=top;html=1;" parent="1" vertex="1">
          <mxGeometry x="-480" y="470" width="30" height="60" as="geometry" />
        </mxCell>
        <mxCell id="2vLhvoE99awzoXhruENi-56" style="edgeStyle=orthogonalEdgeStyle;rounded=0;orthogonalLoop=1;jettySize=auto;html=1;exitX=0.5;exitY=0.5;exitDx=0;exitDy=0;exitPerimeter=0;entryX=0.4;entryY=0.333;entryDx=0;entryDy=0;entryPerimeter=0;" parent="1" source="2vLhvoE99awzoXhruENi-53" target="2vLhvoE99awzoXhruENi-53" edge="1">
          <mxGeometry relative="1" as="geometry" />
        </mxCell>
        <mxCell id="2vLhvoE99awzoXhruENi-57" value="Просмотр списка заказов на доставку" style="ellipse;whiteSpace=wrap;html=1;" parent="1" vertex="1">
          <mxGeometry x="-640" y="550" width="140" height="70" as="geometry" />
        </mxCell>
        <mxCell id="2vLhvoE99awzoXhruENi-60" value="Изменение статуса на &quot;В пути&quot;" style="ellipse;whiteSpace=wrap;html=1;" parent="1" vertex="1">
          <mxGeometry x="-730" y="490" width="140" height="70" as="geometry" />
        </mxCell>
        <mxCell id="2vLhvoE99awzoXhruENi-61" value="Изменение статуса на &quot;Доставлен&quot;" style="ellipse;whiteSpace=wrap;html=1;" parent="1" vertex="1">
          <mxGeometry x="-730" y="410" width="140" height="70" as="geometry" />
        </mxCell>
        <mxCell id="XI77a-Dh8ZHd2fhDws_2-1" value="" style="endArrow=none;html=1;rounded=0;" edge="1" parent="1">
          <mxGeometry width="50" height="50" relative="1" as="geometry">
            <mxPoint x="-530" y="560" as="sourcePoint" />
            <mxPoint x="-480" y="510" as="targetPoint" />
          </mxGeometry>
        </mxCell>
        <mxCell id="XI77a-Dh8ZHd2fhDws_2-2" value="" style="endArrow=none;html=1;rounded=0;" edge="1" parent="1">
          <mxGeometry width="50" height="50" relative="1" as="geometry">
            <mxPoint x="-580" y="441" as="sourcePoint" />
            <mxPoint x="-500" y="480" as="targetPoint" />
          </mxGeometry>
        </mxCell>
        <mxCell id="XI77a-Dh8ZHd2fhDws_2-3" value="" style="endArrow=none;html=1;rounded=0;" edge="1" parent="1">
          <mxGeometry width="50" height="50" relative="1" as="geometry">
            <mxPoint x="-590" y="530" as="sourcePoint" />
            <mxPoint x="-490" y="500" as="targetPoint" />
          </mxGeometry>
        </mxCell>
      </root>
    </mxGraphModel>
  </diagram>
</mxfile>
